#!OML:ASF F:\VICON\USERDATA\INSTALL\rory3\rory3.ASF
:FULLY-SPECIFIED
:DEGREES
104
root -0.5211565201529831 17.91274515502834 36.72802848965627 3.7771479005804505 0.3897057725791806 -2.1172272075064296
lfemur -45.65963341528914 7.256589674945464 -13.683367420572655
ltibia 84.64136241482068
lfoot 9.894966092548668 -6.2302115443483315
ltoes 1.2132239212605267
rfemur -17.565476427757154 -7.794595158065274 24.60343999988511
rtibia 62.70238549354575
rfoot -14.483872709053227 -11.546554904135661
rtoes -20.030815438795393
lowerback 1.0 1.0561849266157606 5.8927408461195085
upperback -1.0218519467687004 1.555098246725682 1.3828110500172521
thorax -7.963446589567898 0.24147235354071633 -0.41460584606729695
lowerneck -22.980361378041316 -5.628016509126214 -1.353950722758856
upperneck 13.80495779948741 -8.246227231279166 3.504265492576824
head 8.331229877325809 -3.630584486304644 0.3279409749071035
lclavicle 2.3604475723870073e-14 1.1599746659836549e-14
lhumerus -59.872979549529944 -3.2975017560363247 86.0355429185814
lradius 76.53199221540976
lwrist 32.255346456292266
lhand -27.567507932068835 -7.898698444735064
lfingers nan
lthumb 0.18409502570321834 23.93769027956197
rclavicle 2.894597000055065e-14 1.49840362199573e-14
rhumerus -26.566419908115424 15.945903437400819 -94.27242358373165
rradius 115.19075714650869
rwrist -29.100216121355686
rhand -21.250262765921907 1.0
rfingers nan
rthumb 5.586309524879849 12.731090492439629
105
root -0.49418795807680554 17.960751143642735 37.18240503425965 3.6682922593981893 0.6020386129785489 -1.989431827815402
lfemur -46.29582652431381 6.516916807282228 -14.237678716066391
ltibia 81.08719930125983
lfoot 10.693667773323687 -5.654878142308198
ltoes 0.6588323678854184
rfemur -16.479967655534384 -8.225557587605719 23.91495523135162
rtibia 60.40860154799908
rfoot -10.389262727000581 -9.733579435920879
rtoes -17.637387535462885
lowerback 1.0 1.1153724449073916 6.176276965562247
upperback -1.2040837736292498 1.6453869335621867 1.213756604583128
thorax -7.980217660524293 0.2570738609225511 -0.5584410926869172
lowerneck -22.391410972041555 -5.802031704769693 -1.328566658113564
upperneck 13.98379665416414 -8.556631310419831 3.401944561197517
head 8.315061914591624 -3.7507303925384567 0.27986151405573806
lclavicle 4.728791646277254e-14 9.02921260499887e-15
lhumerus -60.26243971140548 -2.9606975589975155 85.81271582031776
lradius 77.13126411715703
lwrist 32.63753844692555
lhand -27.179753477838275 -8.891152495516573
lfingers nan
lthumb 0.5849631322949627 22.991495066286618
rclavicle 5.264933968955828e-14 1.2473099474325648e-14
rhumerus -27.055046116921933 16.263548704871432 -94.29823398117698
rradius 118.03439089433431
rwrist -28.219081999055184
rhand -20.577497348377598 1.0
rfingers nan
rthumb 6.259773672480808 14.110370678133915
106
root -0.4882099710051535 17.989294223086496 37.51170285644905 3.5267291602959188 0.803212080199928 -1.9129121748654734
lfemur -46.61723108254412 5.89897741432113 -14.633788119107765
ltibia 77.1118796748336
lfoot 9.66995983169669 -4.413338519287926
ltoes 1.437325611365214
rfemur -15.5446961936679 -8.587293064115368 23.30191131440359
rtibia 57.882656104871096
rfoot -5.32302134790748 -7.6543787929948595
rtoes -15.2829805328297
lowerback 1.0 1.1765428160815068 6.42533279675435
upperback -1.3333539992317365 1.7465444033290245 1.1200399318716159
thorax -7.93720735588256 0.2704114543997381 -0.6306607909408646
lowerneck -21.217287892766013 -5.892780616635605 -1.278304553058108
upperneck 13.863332077302573 -8.782623063062616 3.3493704312953754
head 8.144025486067939 -3.8101229219944797 0.26178486612932256
lclavicle -1.6040461882241178e-14 1.1759715324536636e-14
lhumerus -60.728037633343135 -2.405179424742249 85.51938260171396
lradius 77.81655991824552
lwrist 32.878621468942576
lhand -25.46016916773674 -11.305197029475462
lfingers nan
lthumb 2.285600924864009 20.916593219316606
rclavicle -1.0334607178764607e-14 1.4894899070014903e-14
rhumerus -27.744671259976695 16.099023990681246 -94.32883789638522
rradius 120.71943941099732
rwrist -29.941742784313092
rhand -18.207891051911847 1.0
rfingers nan
rthumb 8.598579665933107 16.0579727264789
107
root -0.483687259502695 18.013819083539822 38.01637524116816 3.348336922381863 1.0588457071745738 -1.263566435467827
lfemur -46.396998792413626 5.161982951760493 -15.57534902604091
ltibia 72.63678082409417
lfoot 9.199339380355465 -4.014287798289797
ltoes -1.9913160893328659
rfemur -14.536030782085545 -9.115322456722915 22.011391148916935
rtibia 55.21820949838877
rfoot 1.3663773951426395 -5.306462727371152
rtoes -10.106978978884602
lowerback 1.0 1.213959565077796 6.190117580680386
upperback -1.2597155884116014 1.720152206914512 0.8586169114705614
thorax -7.480901800827924 0.25005379777822595 -0.5826750023009497
lowerneck -20.339314587900645 -5.92011327522467 -1.1720025587557776
upperneck 13.705035016779842 -8.88597963499422 3.2809943074465577
head 7.993513308702361 -3.825582631605352 0.24327515172582348
lclavicle 2.979822478120999e-14 5.937314279451486e-14
lhumerus -61.20528494783515 -1.6885333940519756 85.11099589569511
lradius 78.7534486992345
lwrist 33.130134431942146
lhand -37.78227762361324 26.53066670549884
lfingers nan
lthumb -10.440880106493257 56.85281626274487
rclavicle 3.627473376095205e-14 6.247248320970899e-14
rhumerus -28.04197810736783 17.104319978996102 -94.53227996735409
rradius 122.46908196689455
rwrist -25.393355496382306
rhand -19.937621120337965 1.0
rfingers nan
rthumb 6.921442841345644 13.02703917075359
108
root -0.4668985245596712 18.026675398984647 38.27811421087034 3.1967682293726956 1.3907048803295323 -0.8801040775224777
lfemur -46.13134308856129 4.241863029991999 -16.18402256526338
ltibia 67.98539186859296
lfoot 9.175314069454025 -3.93022479535679
ltoes -1.78731050355848
rfemur -13.927224762796213 -9.669740692528919 21.095424256009068
rtibia 52.5049060077552
rfoot 9.479677438451034 -3.6081985008419935
rtoes -11.15758496759451
lowerback 1.0 1.201011982901 6.2113185815290635
upperback -1.1302515866161686 1.648554606368048 0.7252552774842471
thorax -7.011351978759658 0.21312537363336143 -0.48150615490773346
lowerneck -20.139137307449186 -5.98592105384653 -1.2222283843965673
upperneck 13.946002405691205 -9.005728759465015 3.272574220751596
head 8.047476336251652 -3.85982130521235 0.24118099633052215
lclavicle 2.5900211696848165e-14 -8.970833006332916e-15
lhumerus -61.53896159609944 -1.032878728776982 84.77132610688113
lradius 79.51202590458213
lwrist 33.488455905412906
lhand -36.67524262212569 16.031693679480032
lfingers nan
lthumb -9.372700464213084 46.3599059955267
rclavicle 3.1419532945882623e-14 -5.6580386627592195e-15
rhumerus -27.361317990677467 17.868795239437347 -93.64187954005001
rradius 123.89821947744156
rwrist -27.999003806873418
rhand -19.50759838809964 1.0
rfingers nan
rthumb 7.37213993658071 11.172558385685601
109
root -0.45502314778711384 18.042364352124913 38.512844534305714 3.0536083337821833 1.6954690120498392 -0.6727158212006064
lfemur -45.939517650576526 3.521190049719919 -16.61570755607159
ltibia 63.290867833203926
lfoot 8.987724441482634 -4.3590590926283115
ltoes -1.2377485521017917
rfemur -13.624645546062531 -9.828663242401612 20.56804398104287
rtibia 50.03970584379592
rfoot 16.807200880352205 -3.027498129317019
rtoes -12.112075166631136
lowerback 1.0 1.1952177903237502 6.248027029179345
upperback -1.0660703539883785 1.630926363840308 0.624941905935766
thorax -6.900136712598423 0.1907555186454546 -0.3764510877235965
lowerneck -19.913528406878548 -6.128016839875597 -1.540018379173953
upperneck 14.271954340338093 -9.244590026185065 3.4815672645371536
head 8.15420786937076 -3.9211602536970998 0.3144204687031442
lclavicle -1.561678684044643e-14 1.8214651358012917e-14
lhumerus -61.87256325693129 -0.4618359672201837 84.4540979340562
lradius 80.29529690995687
lwrist 33.91791919592172
lhand -31.28594004415958 -0.793267636025142
lfingers nan
lthumb -4.0715033734475305 29.94394421564126
rclavicle -1.0129449125288126e-14 2.145592291952294e-14
rhumerus -27.130585850497667 18.606821553429008 -93.15616136838534
rradius 125.0431969016243
rwrist -25.3157354273627
rhand -20.435674530491212 1.0
rfingers nan
rthumb 6.512427013598169 9.611232529434279
110
root -0.44853962520397456 18.059071550184193 38.86691185330784 2.933595762901002 1.890900082842628 -0.3538955783936838
lfemur -45.45194910393702 3.0704548490937067 -17.1181236489555
ltibia 58.36821864519424
lfoot 8.620976513900002 -4.834264380888726
ltoes -1.2153590449356546
rfemur -13.606281922719024 -9.56345599477599 20.09633054086971
rtibia 48.07848946669588
rfoot 22.157529940756532 -3.176640233631626
rtoes -10.193193022631487
lowerback 1.0 1.2246528309645401 6.019575084243795
upperback -0.9981677205108097 1.6326653062651757 0.4622439395338491
thorax -6.820195511676582 0.1788905316351681 -0.23723392747254812
lowerneck -19.314297776883752 -6.249566495092742 -1.7844946173337282
upperneck 14.275641498815535 -9.417507372778413 3.7417019916003578
head 8.13021393827905 -3.95101485857803 0.40046261071011796
lclavicle -6.86622961458099e-15 -2.9851385440829607e-15
lhumerus -62.35316090456847 0.19611289690368316 84.06019277468916
lradius 81.56759468022175
lwrist 34.25754997542296
lhand -23.673481852889083 -11.76486407763393
lfingers nan
lthumb 3.209828692901665 19.146743672776047
rclavicle -1.4636534815757313e-15 1.4968731133632452e-16
rhumerus -27.78643804142154 19.787379540509498 -93.58426898061995
rradius 126.77995991354703
rwrist -25.190674189642962
rhand -22.219641027018866 1.0
rfingers nan
rthumb 4.8203867869268 5.709545261502228
